<svg xmlns="http://www.w3.org/2000/svg" version="1.1" xmlns:xlink="http://www.w3.org/1999/xlink" xmlns:svgjs="http://svgjs.com/svgjs" width="512" height="512" x="0" y="0" viewBox="0 0 100 100" style="enable-background:new 0 0 512 512" xml:space="preserve" class=""><g><path d="M89.825 63.732c-.65-.951-7.216-4.08-8.656-4.534-1.919-.607-2.741-.914-3.827-2.421-.958-1.331-2.031-2.687-3.676-3.332-.585-.23-1.171-.344-1.738-.454-.468-.091-.908-.177-1.294-.319-.717-.267-1.429-.833-2.116-1.381l-.313-.247c-.71-.559-1.178-1.245-1.719-2.038-.098-.144-.215-.368-.346-.616-.548-1.024-1.117-2.071-2.043-2.216-.018-.003-.031-.015-.049-.017-.016-.002-.029.001-.046-.001-.013-.001-.022-.006-.035-.007-.019-.001-.036.005-.055.004-1.151-.082-2.299.929-3.315 1.829-.273.241-.52.46-.714.601-.349.25-.868.446-1.418.652-.458.172-.924.348-1.354.576-.027-.049-.051-.099-.08-.147-.438-.696-.988-1.245-1.522-1.775-.424-.421-.823-.82-1.13-1.257-.779-1.115-1.424-2.244-2.105-3.44-.523-.917-1.065-1.866-1.668-2.794l-.233-.364c-.628-.981-1.278-1.997-2.266-2.824l-.296-.251c-1.335-1.138-2.633-2.156-3.831-2.24-.017-.002-.417-.015-.696.16-.268.2-.419.55-.434.622-.449 2.173-.994 4.241-2.711 5.666-.392.325-.81.63-1.23.937-1.123.82-2.356 1.732-3.21 3.083-1.241-.981-2.654-1.798-3.786-2.257l-.003-.002-.003-.001c-.009-.003-.438-.16-.821.022-.257.13-.367.239-.494.49-.335.66-2.499 4.197-3.02 4.874-.882 1.146-1.891 1.834-3.445 2.705-1.1.615-1.769 1.432-2.416 2.221-.333.404-.646.787-1.016 1.141-.278.266-.558.521-.835.773-.833.76-1.687 1.551-2.42 2.535-1.046.545-2.222 1.342-3.269 2.244-.329.284-.643.59-.956.896-.79.771-1.536 1.497-2.487 1.767a.999.999 0 1 0 .544 1.923c1.439-.405 2.449-1.39 3.339-2.258.285-.277.569-.556.867-.813 1.091-.941 2.382-1.797 3.368-2.229 2.847-1.252 5.727-.503 8.777.289l.563.146c.583.15 1.16.479 1.77.828 1.091.621 2.322 1.326 3.927 1.162.588-.063 1.173-.188 1.739-.309.574-.123 1.116-.239 1.649-.291 1.084-.104 2.356.112 3.559-.354.37-.145.62-.493.637-.891.096-2.212-1.053-2.953-2.164-3.67a20.425 20.425 0 0 1-.516-.34l-.144-.098c-.395-.267-.935-.631-1.034-.92-.033-.096-.006-.321.018-.521.062-.521.165-1.396-.561-2.093-.519-.499-1.199-.589-1.746-.658-.251-.033-.671-.088-.743-.179-.031-.039-.177-.289.024-1.313l.024-.124c.22-1.111.216-1.427-.319-2.556-.141-.296-.191-.553-.233-.869.818.606 1.54 1.27 2.019 1.884.423.542.785 1.218 1.168 1.933.54 1.008 1.098 2.051 1.908 2.848 1.026 1.008 2.16 1.07 3.07 1.12.608.034 1.088.061 1.502.325.277.177.508.563.752.976.179.3.359.599.567.864.599.769 1.651 1.768 2.87 2.293.969.418 1.503.646 2.332 1.225 1.037.721 2.178 1.319 3.209 1.684a.994.994 0 0 0 1.275-.608.996.996 0 0 0-.609-1.274c-.867-.309-1.839-.819-2.732-1.44-.995-.692-1.667-.981-2.743-1.445-.44-.19-.944-.558-1.399-.987-.109-.675-.031-1.371.063-2.104.081-.636.165-1.292.132-1.985-.059-1.22-.655-2.037-1.134-2.694-.328-.449-.611-.837-.741-1.323-.06-.221.019-.402.32-.91.114-.191.227-.384.324-.585.435-.894.746-1.841.926-2.813.287-1.552.078-3.221-.566-4.895l.236.2c.752.63 1.293 1.474 1.865 2.368l.24.373c.572.882 1.099 1.805 1.608 2.698.675 1.183 1.373 2.406 2.205 3.596.408.583.892 1.063 1.357 1.529.475.472.924.917 1.238 1.42.174.275.324.606.482.957l.043.084c.005.01.009.019.014.026.146.32.292.642.467.938 1.619 2.775 2.729 3.244 5.771 4.531 1.219.516 2.83 1.497 3.684 2.037.938.592 2.673 1.014 4.066 1.354.465.112.88.213 1.188.303a1 1 0 0 0 1.164-.492c1.352-2.552-1.523-4.141-3.833-5.418-1.293-.715-2.758-1.524-3.2-2.297-.779-1.356-1.082-2.524-.919-3.628l.111.208c.173.322.33.611.458.799.581.853 1.182 1.735 2.135 2.485l.303.238c.773.617 1.649 1.313 2.666 1.691.539.2 1.084.307 1.609.408.5.097.973.188 1.387.352 1.143.449 1.938 1.461 2.785 2.642 1.447 2.006 2.721 2.483 4.848 3.157 1.764.558 7.006 3.28 7.672 3.841a.996.996 0 0 0 1.327.178.999.999 0 0 0 .262-1.392z" fill="#000000" data-original="#000000"></path></g></svg>